<?xml version="1.0" encoding="UTF-8"?>
<svg id="Layer_1" data-name="Layer 1" xmlns="http://www.w3.org/2000/svg" xmlns:xlink="http://www.w3.org/1999/xlink" viewBox="0 0 3000 3000">
  <defs>
    <style>
      .cls-1 {
        fill: url(#linear-gradient);
      }

      .cls-1, .cls-2, .cls-3 {
        stroke-width: 0px;
      }

      .cls-2 {
        fill: url(#linear-gradient-2);
      }

      .cls-3 {
        fill: #3fd6eb;
      }
    </style>
    <linearGradient id="linear-gradient" x1="130.05" y1="1979.72" x2="2869.95" y2="1979.72" gradientUnits="userSpaceOnUse">
      <stop offset="0" stop-color="#100295"/>
      <stop offset="1" stop-color="#3fd6eb"/>
    </linearGradient>
    <linearGradient id="linear-gradient-2" x1="1081.91" y1="1265.79" x2="1927.34" y2="1265.79" xlink:href="#linear-gradient"/>
  </defs>
  <path class="cls-1" d="m2822.82,1887.34v188.52h40.35v-188.52h-40.35Zm40.16-38.27c4.65-4.4,6.97-10.62,6.97-18.66s-2.33-14.2-6.97-18.48c-4.66-4.27-11.25-6.41-19.8-6.41s-15.52,2.14-20.17,6.41c-4.65,4.28-6.97,10.44-6.97,18.48s2.32,14.27,6.97,18.66c4.65,4.4,11.37,6.6,20.17,6.6s15.14-2.2,19.8-6.6Zm-146.1,157.03c0,7.54-1.32,14.02-3.96,19.42-2.64,5.41-6.35,9.8-11.12,13.19-4.78,3.39-10.12,5.85-16.02,7.36-5.91,1.51-12.01,2.26-18.29,2.26-9.05,0-16.28-2.07-21.68-6.22-5.41-4.15-8.1-9.74-8.1-16.77s2.64-12.82,7.92-16.59,13.2-6.66,23.75-8.67l53.16-10.94.38-28.28-73.14,14.33c-16.85,3.27-29.85,9.43-39.02,18.48-9.18,9.05-13.76,20.62-13.76,34.69,0,11.31,2.7,20.8,8.11,28.47,5.4,7.67,12.82,13.39,22.25,17.16,9.42,3.77,20.04,5.65,31.86,5.65,9.55,0,18.98-1.57,28.28-4.71,9.29-3.14,17.46-7.92,24.51-14.33,7.03-6.41,11.69-14.51,13.95-24.32l-8.3.38v2.64c0,8.8,1.82,16.15,5.47,22.06s8.67,10.31,15.08,13.19c6.41,2.89,13.63,4.34,21.68,4.34,8.79,0,16.08-1.39,21.87-4.15l2.26-27.9c-4.28,1.26-8.67,1.88-13.2,1.88-9.3,0-13.95-4.65-13.95-13.95v-84.08c0-15.33-3.33-27.9-9.99-37.7-6.66-9.8-15.78-17.16-27.34-22.06-11.56-4.9-24.88-7.35-39.96-7.35-22.12,0-40.15,4.66-54.11,13.95-13.95,9.3-23.32,21.62-28.09,36.95l33.93,14.33c3.77-11.81,9.67-20.36,17.72-25.64,8.04-5.28,17.72-7.92,29.03-7.92,12.07,0,21.55,3.46,28.47,10.37,6.91,6.92,10.37,16.66,10.37,29.22v51.28Zm-212.46,26.21c-5.16,4.9-7.73,11.5-7.73,19.79s2.57,14.96,7.73,19.98c5.15,5.02,12.12,7.54,20.92,7.54s15.4-2.52,20.55-7.54c5.15-5.03,7.73-11.69,7.73-19.98s-2.58-14.89-7.73-19.79c-5.15-4.9-12.01-7.36-20.55-7.36s-15.78,2.45-20.92,7.36Zm-99.72,42.04c10.56-3.51,19.66-8.6,27.34-15.27,7.66-6.66,13.76-14.51,18.28-23.57l-32.05-15.08c-4.53,8.55-10.69,15.21-18.48,19.98-7.79,4.78-17.97,7.17-30.54,7.17-11.31,0-21.11-2.51-29.41-7.54-8.3-5.02-14.71-12.44-19.23-22.25-4.53-9.8-6.79-21.74-6.79-35.82s2.13-26.45,6.41-36.38c4.27-9.93,10.43-17.4,18.47-22.43,8.04-5.02,17.47-7.54,28.28-7.54,14.83,0,26.52,4.59,35.06,13.76,8.54,9.18,12.82,22.31,12.82,39.4l19.98-6.03h-133.85v30.92h151.57c.5-3.02.88-6.53,1.13-10.56.25-4.02.38-8.3.38-12.82,0-16.59-3.39-31.41-10.18-44.49-6.79-13.07-16.59-23.38-29.41-30.92-12.82-7.54-28.41-11.31-46.75-11.31s-33.81,3.9-47.88,11.69c-14.08,7.79-25.07,19.04-32.99,33.74-7.92,14.71-11.88,32.24-11.88,52.6s3.96,37.89,11.88,52.6c7.92,14.7,19.04,25.96,33.37,33.74,14.33,7.79,30.92,11.69,49.77,11.69,12.56,0,24.13-1.76,34.69-5.28Zm-221.89-152.89c7.66,6.41,11.5,15.02,11.5,25.83s-3.84,19.48-11.5,26.01c-7.67,6.54-17.41,9.8-29.22,9.8s-21.18-3.26-28.84-9.8c-7.67-6.53-11.5-15.2-11.5-26.01s3.83-19.42,11.5-25.83c7.66-6.41,17.28-9.62,28.84-9.62s21.55,3.21,29.22,9.62Zm-71.64-29.97c-12.19,5.28-21.68,12.69-28.46,22.25-6.79,9.55-10.18,20.74-10.18,33.55,0,19.11,6.97,34.5,20.92,46.19,13.95,11.69,33.99,17.53,60.14,17.53,16.59,0,30.98-2.64,43.17-7.92,12.19-5.28,21.61-12.69,28.28-22.25,6.66-9.55,9.99-20.74,9.99-33.56s-3.33-24-9.99-33.55c-6.67-9.55-16.09-16.97-28.28-22.25-12.19-5.28-26.58-7.92-43.17-7.92s-30.23,2.64-42.42,7.92Zm2.08,228.1c-10.06-4.78-15.08-11.31-15.08-19.6,0-6.29,2.39-11.25,7.16-14.89,4.77-3.64,10.68-5.47,17.72-5.47h60.71c12.07,0,20.42,1.76,25.07,5.28,4.65,3.52,6.97,8.17,6.97,13.95,0,5.03-2.2,9.62-6.6,13.76-4.4,4.15-11.06,7.54-19.98,10.18-8.93,2.64-20.3,3.96-34.12,3.96-17.85,0-31.8-2.39-41.85-7.17Zm19.98-73.14c-8.55,0-15.15-1.51-19.79-4.53-4.66-3.02-6.97-7.66-6.97-13.95,0-5.28,2.39-10.05,7.16-14.33,4.77-4.27,12.94-6.91,24.51-7.92h4.53l-21.12-10.18c-15.08,1.26-26.77,5.66-35.06,13.2-8.3,7.54-12.44,16.72-12.44,27.52s3.21,19.17,9.61,25.07c6.41,5.91,14.89,9.99,25.45,12.25l2.26-6.03c-17.09,1.01-29.22,5.28-36.38,12.82-7.16,7.54-10.74,16.34-10.74,26.39,0,14.33,7.41,26.26,22.25,35.82,14.83,9.55,37.7,14.33,68.62,14.33,18.35,0,34.62-2.52,48.82-7.54,14.2-5.03,25.45-12.25,33.75-21.68,8.3-9.42,12.44-20.68,12.44-33.74,0-14.84-5.28-26.45-15.83-34.88-10.56-8.42-25.39-12.63-44.49-12.63h-56.56Zm114.62-198.7h-1.51c-10.05,0-19.04,2.26-26.96,6.79-7.92,4.52-14.01,10.75-18.28,18.66-4.28,7.92-6.41,16.91-6.41,26.96l19.6,9.05c0-9.8,3.14-17.28,9.43-22.43,6.28-5.15,15.46-7.73,27.52-7.73.75,0,1.51.07,2.26.19.76.13,1.51.19,2.27.19l-6.41-31.67h-1.51Zm-272.21,228.11v-99.91c0-12.82,2.45-23.38,7.35-31.67,4.91-8.3,11.12-14.51,18.66-18.66,7.54-4.15,15.2-6.22,23-6.22,5.78,0,10.36.32,13.76.94,3.39.63,6.47,1.45,9.24,2.45l5.65-35.44c-2.52-1.25-5.65-2.2-9.42-2.83-3.78-.63-7.55-.94-11.32-.94-14.58,0-26.83,3.21-36.76,9.62-9.93,6.41-17.41,15.78-22.43,28.09l-3.77-33.93h-34.31v188.52h40.35Zm-156.09-152.89c7.79,5.15,13.82,12.63,18.1,22.43,4.27,9.8,6.41,21.87,6.41,36.2s-2.14,26.08-6.41,36.01c-4.28,9.93-10.31,17.47-18.1,22.62-7.79,5.16-17.34,7.73-28.65,7.73s-20.93-2.57-28.84-7.73c-7.92-5.15-14.01-12.69-18.29-22.62-4.28-9.93-6.41-21.93-6.41-36.01s2.13-26.39,6.41-36.2c4.27-9.8,10.37-17.28,18.29-22.43,7.92-5.15,17.53-7.73,28.84-7.73s20.86,2.58,28.65,7.73Zm-77.29-27.71c-14.08,7.79-25.14,19.04-33.18,33.74-8.05,14.71-12.07,32.24-12.07,52.6s4.02,37.89,12.07,52.6c8.04,14.7,19.1,25.96,33.18,33.74,14.08,7.79,30.29,11.69,48.64,11.69s34.56-3.89,48.64-11.69c14.08-7.79,25.07-19.04,32.99-33.74,7.92-14.71,11.88-32.24,11.88-52.6s-3.96-37.89-11.88-52.6c-7.92-14.7-18.92-25.95-32.99-33.74-14.08-7.79-30.29-11.69-48.64-11.69s-34.56,3.9-48.64,11.69Zm-58.06-68.24h-179.85v248.85h40.34v-107.08h109.34v-34.69h-109.34v-72.39h139.51v-34.69Zm-377.04,248.85v-99.54c0-14.58,2.58-26.2,7.73-34.87,5.15-8.67,11.69-14.95,19.61-18.85,7.92-3.89,15.9-5.85,23.94-5.85,11.56,0,21.17,3.65,28.84,10.94,7.66,7.29,11.5,20.24,11.5,38.83v109.34h40.34v-122.16c0-15.83-3.14-28.9-9.43-39.21-6.29-10.31-14.77-18.03-25.45-23.19-10.69-5.15-22.69-7.73-36.01-7.73s-24.95,2.7-35.63,8.11c-10.69,5.41-19.17,14.01-25.45,25.83v-115h-40.34v273.35h40.34Zm-223.2-188.52v31.67h141.39v-31.67h-141.39Zm36.2-44.11v182.86c.25,12.82,2.89,23.19,7.92,31.11,5.03,7.92,12.07,13.64,21.11,17.16,9.05,3.52,18.98,5.28,29.79,5.28s19.66-1.45,28.09-4.33c8.42-2.89,15.52-6.85,21.3-11.88l-9.05-29.41c-4.28,3.77-8.92,6.72-13.95,8.86-5.03,2.14-10.93,3.21-17.72,3.21-8.29,0-14.89-2.14-19.79-6.41-4.9-4.27-7.35-11.06-7.35-20.36v-187.39l-40.34,11.31Zm-140.26,193.04l-46.75-148.93h-40.34l-46.75,148.93-42.98-148.93h-43.36l62.97,188.52h44.11l44.87-139.88,47.51,139.88h44.11l63.34-188.52h-43.74l-42.98,148.93Zm-306.91-113.3c7.79,5.15,13.82,12.63,18.1,22.43,4.27,9.8,6.41,21.87,6.41,36.2s-2.14,26.08-6.41,36.01c-4.28,9.93-10.31,17.47-18.1,22.62-7.79,5.16-17.34,7.73-28.65,7.73s-20.93-2.57-28.84-7.73c-7.92-5.15-14.01-12.69-18.29-22.62-4.28-9.93-6.41-21.93-6.41-36.01s2.13-26.39,6.41-36.2c4.27-9.8,10.37-17.28,18.29-22.43,7.92-5.15,17.53-7.73,28.84-7.73s20.86,2.58,28.65,7.73Zm-77.29-27.71c-14.08,7.79-25.14,19.04-33.18,33.74-8.05,14.71-12.07,32.24-12.07,52.6s4.02,37.89,12.07,52.6c8.04,14.7,19.1,25.96,33.18,33.74,14.08,7.79,30.29,11.69,48.64,11.69s34.56-3.89,48.64-11.69c14.08-7.79,25.07-19.04,32.99-33.74,7.92-14.71,11.88-32.24,11.88-52.6s-3.96-37.89-11.88-52.6c-7.92-14.7-18.92-25.95-32.99-33.74-14.08-7.79-30.29-11.69-48.64-11.69s-34.56,3.9-48.64,11.69Zm-144.03,180.6v-99.91c0-12.82,2.45-23.38,7.35-31.67s11.12-14.51,18.66-18.66c7.54-4.15,15.21-6.22,23-6.22,5.78,0,10.37.32,13.76.94,3.39.63,6.47,1.45,9.24,2.45l5.66-35.44c-2.52-1.25-5.66-2.2-9.43-2.83s-7.54-.94-11.31-.94c-14.58,0-26.83,3.21-36.76,9.62-9.93,6.41-17.41,15.78-22.43,28.09l-3.77-33.93h-34.31v188.52h40.34Zm-154.02-9.42c13.95-8.8,23.94-21.12,29.97-36.95l-7.54-3.77,2.26,50.15h30.16v-128.19h-108.21v32.8h72.39v7.17c0,9.8-1.7,18.28-5.09,25.45-3.39,7.17-8.11,13.08-14.14,17.72-6.03,4.65-13.07,8.17-21.11,10.56-8.05,2.39-16.72,3.58-26.01,3.58-17.1,0-31.48-3.64-43.17-10.93-11.69-7.29-20.43-17.91-26.21-31.86-5.79-13.95-8.67-30.85-8.67-50.71s3.26-36.39,9.8-50.34c6.53-13.95,15.65-24.56,27.34-31.86,11.69-7.28,25.32-10.93,40.91-10.93s28.84,3.46,39.78,10.37c10.93,6.91,18.79,17.28,23.57,31.1l37.33-17.72c-9.56-20.11-22.31-34.94-38.27-44.49-15.97-9.55-36.89-14.33-62.78-14.33-23.63,0-44.56,5.22-62.78,15.65-18.23,10.43-32.3,25.2-42.23,44.3-9.93,19.1-14.89,41.85-14.89,68.24s4.77,49.83,14.33,68.81c9.55,18.98,22.87,33.62,39.97,43.92,17.09,10.31,37.33,15.46,60.7,15.46,21.11,0,38.65-4.39,52.6-13.19Z"/>
  <g>
    <path class="cls-3" d="m2015.02,1518.71v89.84c0,7.94-3.15,15.55-8.76,21.17l-13,13.01c-5.62,5.62-13.24,8.78-21.19,8.78h-89.44c-7.94,0-15.56-3.16-21.18-8.77l-11.8-11.8c-5.62-5.62-8.77-13.23-8.77-21.18v-90.2c0-7.94,3.16-15.56,8.77-21.18l12.24-12.24c5.62-5.62,13.23-8.77,21.18-8.77h90.61c7.94,0,15.56,3.16,21.18,8.77l11.39,11.39c5.62,5.62,8.77,13.23,8.77,21.18Z"/>
    <path class="cls-2" d="m1927.34,1043.79v403.7h-62.01c-11.05,0-21.59,4.39-29.37,12.18l-16.94,16.95c-7.78,7.78-12.05,18.33-12.05,29.25v124.9c0,8.03,2.26,15.94,6.65,22.6-26.36,22.6-59.88,35.15-94.78,35.15h-434.21c-38.54,0-75.57-15.31-102.81-42.68l-55.48-55.36,241.14-236.37,104.82,78.08,262.61-261.35,62.39,48.58,16.69-219.42-215.28,54.1,72.3,59.75-211.14,207-106.95-79.21-269.26,266.62c-1.13-7.41-1.76-14.94-1.76-22.47v-437.85c0-38.66,15.31-75.57,42.55-102.93l59.5-59.38c27.24-27.24,64.27-42.55,102.81-42.55h439.85c38.66,0,75.57,15.31,102.81,42.55l55.36,55.23c27.24,27.37,42.55,64.27,42.55,102.93Z"/>
  </g>
</svg>